<?xml version="1.0" encoding="UTF-8"?>
<svg width="200px" height="73px" viewBox="0 0 200 73" version="1.1" xmlns="http://www.w3.org/2000/svg" xmlns:xlink="http://www.w3.org/1999/xlink">
    <!-- Generator: Sketch 49.3 (51167) - http://www.bohemiancoding.com/sketch -->
    <title>лого </title>
    <desc>Created with Sketch.</desc>
    <defs>
        <polygon id="path-1" points="0.1799 0.00912328767 26.8819 0.00912328767 26.8819 7.33674521 0.1799 7.33674521"></polygon>
        <polygon id="path-3" points="0.2619 0.781865753 26.9639 0.781865753 26.9639 8.10958904 0.2619 8.10958904"></polygon>
        <polygon id="path-5" points="0.1946 0.0260520548 26.896 0.0260520548 26.896 33.3777507 0.1946 33.3777507"></polygon>
        <polygon id="path-7" points="0.1946 0.034769863 26.896 0.034769863 26.896 33.2607699 0.1946 33.2607699"></polygon>
    </defs>
    <g id="Page-1" stroke="none" stroke-width="1" fill="none" fill-rule="evenodd">
        <g id="main" transform="translate(-220.000000, -57.000000)">
            <g id="header" transform="translate(0.000000, -1.000000)">
                <g id="лого-" transform="translate(220.000000, 57.000000)">
                    <g id="лого-copy">
                        <g id="Group-3" transform="translate(38.000000, 1.004879)">
                            <mask id="mask-2" fill="white">
                                <use xlink:href="#path-1"></use>
                            </mask>
                            <g id="Clip-2"></g>
                            <path d="M25.5099,7.33674521 L1.5519,7.33674521 C0.7939,7.33674521 0.1799,6.71433425 0.1799,5.94595068 L0.1799,1.39951233 C0.1799,0.632142466 0.7939,0.00871780822 1.5519,0.00871780822 L25.5099,0.00871780822 C26.2679,0.00871780822 26.8819,0.632142466 26.8819,1.39951233 L26.8819,5.94595068 C26.8819,6.71433425 26.2679,7.33674521 25.5099,7.33674521" id="Fill-1" fill="#19123F" mask="url(#mask-2)"></path>
                        </g>
                        <path d="M63.5099,21.3791068 L39.5519,21.3791068 C38.7939,21.3791068 38.1799,20.7566959 38.1799,19.9883123 L38.1799,15.4428877 C38.1799,14.6745041 38.7939,14.0510795 39.5519,14.0510795 L63.5099,14.0510795 C64.2679,14.0510795 64.8819,14.6745041 64.8819,15.4428877 L64.8819,19.9883123 C64.8819,20.7566959 64.2679,21.3791068 63.5099,21.3791068" id="Fill-4" fill="#19123F"></path>
                        <path d="M63.5099,34.4176027 L39.5519,34.4176027 C38.7939,34.4176027 38.1799,33.7951918 38.1799,33.0268082 L38.1799,28.4803699 C38.1799,27.713 38.7939,27.0895753 39.5519,27.0895753 L63.5099,27.0895753 C64.2679,27.0895753 64.8819,27.713 64.8819,28.4803699 L64.8819,33.0268082 C64.8819,33.7951918 64.2679,34.4176027 63.5099,34.4176027" id="Fill-6" fill="#19123F"></path>
                        <path d="M165.5929,47.9155068 L141.6339,47.9155068 C140.8759,47.9155068 140.2619,47.2930959 140.2619,46.5247123 L140.2619,41.9792877 C140.2619,41.2109041 140.8759,40.5874795 141.6339,40.5874795 L165.5929,40.5874795 C166.3499,40.5874795 166.9639,41.2109041 166.9639,41.9792877 L166.9639,46.5247123 C166.9639,47.2930959 166.3499,47.9155068 165.5929,47.9155068" id="Fill-8" fill="#19123F"></path>
                        <path d="M165.5929,60.952989 L141.6339,60.952989 C140.8759,60.952989 140.2619,60.3305781 140.2619,59.5621945 L140.2619,55.0167699 C140.2619,54.2483863 140.8759,53.6249616 141.6339,53.6249616 L165.5929,53.6249616 C166.3499,53.6249616 166.9639,54.2483863 166.9639,55.0167699 L166.9639,59.5621945 C166.9639,60.3305781 166.3499,60.952989 165.5929,60.952989" id="Fill-10" fill="#19123F"></path>
                        <g id="Group-14" transform="translate(140.000000, 65.881592)">
                            <mask id="mask-4" fill="white">
                                <use xlink:href="#path-3"></use>
                            </mask>
                            <g id="Clip-13"></g>
                            <path d="M25.5929,8.10989315 L1.6339,8.10989315 C0.8759,8.10989315 0.2619,7.48748219 0.2619,6.71909863 L0.2619,2.17367397 C0.2619,1.40529041 0.8759,0.781865753 1.6339,0.781865753 L25.5929,0.781865753 C26.3499,0.781865753 26.9639,1.40529041 26.9639,2.17367397 L26.9639,6.71909863 C26.9639,7.48748219 26.3499,8.10989315 25.5929,8.10989315" id="Fill-12" fill="#19123F" mask="url(#mask-4)"></path>
                        </g>
                        <path d="M50.3869,41.3838411 L38.2109,72.2671836 C37.8879,73.0872658 38.4849,73.9803342 39.3569,73.9803342 L63.7059,73.9803342 C64.5779,73.9803342 65.1739,73.0872658 64.8509,72.2671836 L52.6759,41.3838411 C52.2629,40.3366904 50.7999,40.3366904 50.3869,41.3838411" id="Fill-15" fill="#5800FF"></path>
                        <path d="M152.4689,1.8099589 L140.2939,32.6933014 C139.9699,33.5133836 140.5669,34.4064521 141.4389,34.4064521 L165.7879,34.4064521 C166.6599,34.4064521 167.2569,33.5133836 166.9329,32.6933014 L154.7579,1.8099589 C154.3449,0.762808219 152.8819,0.762808219 152.4689,1.8099589" id="Fill-17" fill="#5800FF"></path>
                        <path d="M30.9523,2.48416986 L30.9523,32.9478411 C30.9523,34.1135945 30.4023,34.4177041 29.5023,34.4177041 L24.7013,34.4177041 C23.8013,34.4177041 23.2523,34.1135945 23.2523,32.9478411 L23.2523,15.7646356 L18.2513,24.6355123 C18.0013,25.0399781 17.5513,25.6988822 16.8013,25.6988822 L14.3013,25.6988822 C13.5513,25.6988822 13.1503,25.0399781 12.9003,24.6355123 L7.8503,15.7646356 L7.8503,32.9478411 C7.8503,34.1135945 7.3013,34.4177041 6.4003,34.4177041 L1.4503,34.4177041 C0.5513,34.4177041 0.0003,34.1135945 0.0003,32.9478411 L0.0003,2.48416986 C0.0003,1.57285479 0.3013,1.01430685 1.4503,1.01430685 L6.4003,1.01430685 C8.1003,1.01430685 8.3013,2.12836164 8.7013,2.73759452 L15.5513,15.2071014 L22.4513,2.73759452 C22.8013,2.12836164 23.0513,1.01430685 24.7013,1.01430685 L29.5023,1.01430685 C30.6523,1.01430685 30.9523,1.57285479 30.9523,2.48416986" id="Fill-19" fill="#19123F"></path>
                        <path d="M98.9006,2.50890411 L98.9006,32.9218904 C98.9006,33.8342192 98.6006,34.3917534 97.4506,34.3917534 L92.8996,34.3917534 C91.6496,34.3917534 91.2996,33.6821644 90.6496,32.6684658 L80.0496,15.2835342 L80.0496,32.9218904 C80.0496,34.0876438 79.4996,34.3917534 78.5986,34.3917534 L73.6496,34.3917534 C72.7496,34.3917534 72.1986,34.0876438 72.1986,32.9218904 L72.1986,2.50890411 C72.1986,1.59657534 72.4996,1.04005479 73.6496,1.04005479 L78.3486,1.04005479 C79.5986,1.04005479 79.9496,1.74863014 80.5986,2.76232877 L91.2006,20.0986027 L91.2006,2.50890411 C91.2006,1.34315068 91.7506,1.04005479 92.6496,1.04005479 L97.4506,1.04005479 C98.3506,1.04005479 98.9006,1.34315068 98.9006,2.50890411" id="Fill-21" fill="#19123F"></path>
                        <path d="M131.4035,1.03985205 L107.4455,1.03985205 C106.6875,1.03985205 106.0735,1.66226301 106.0735,2.42963288 L106.0735,6.97607123 C106.0735,7.74445479 106.6875,8.36787945 107.4455,8.36787945 L115.5235,8.36787945 L115.5235,32.9216877 C115.5235,34.0884548 116.0735,34.3915507 116.9735,34.3915507 L121.9245,34.3915507 C122.8235,34.3915507 123.3745,34.0884548 123.3745,32.9216877 L123.3745,8.36787945 L131.4035,8.36787945 C132.1615,8.36787945 132.7755,7.74445479 132.7755,6.97607123 L132.7755,2.42963288 C132.7755,1.66226301 132.1615,1.03985205 131.4035,1.03985205" id="Fill-23" fill="#19123F"></path>
                        <g id="Group-27" transform="translate(173.000000, 40.539126)">
                            <mask id="mask-6" fill="white">
                                <use xlink:href="#path-5"></use>
                            </mask>
                            <g id="Clip-26"></g>
                            <path d="M25.5246,0.0260520548 L1.5656,0.0260520548 C0.8086,0.0260520548 0.1946,0.648463014 0.1946,1.41684658 L0.1946,5.96227123 C0.1946,6.73065479 0.8086,7.35407945 1.5656,7.35407945 L9.6446,7.35407945 L9.6446,31.9078877 C9.6446,33.0746548 10.1946,33.3777507 11.0946,33.3777507 L16.0456,33.3777507 C16.9446,33.3777507 17.4956,33.0746548 17.4956,31.9078877 L17.4956,7.35407945 L25.5246,7.35407945 C26.2826,7.35407945 26.8966,6.73065479 26.8966,5.96227123 L26.8966,1.41684658 C26.8966,0.648463014 26.2826,0.0260520548 25.5246,0.0260520548" id="Fill-25" fill="#19123F" mask="url(#mask-6)"></path>
                        </g>
                        <g id="Group-30" transform="translate(173.000000, 1.004879)">
                            <mask id="mask-8" fill="white">
                                <use xlink:href="#path-7"></use>
                            </mask>
                            <g id="Clip-29"></g>
                            <path d="M25.5246,25.9327425 L8.0446,25.9327425 L8.0446,1.50361918 C8.0446,0.337865753 7.4946,0.034769863 6.5946,0.034769863 L1.6436,0.034769863 C0.7446,0.034769863 0.1946,0.337865753 0.1946,1.50361918 L0.1946,27.3225233 L0.1946,31.8689616 L0.1946,31.9166055 L0.1986,31.9125507 C0.2216,32.6606603 0.8236,33.2607699 1.5656,33.2607699 L25.5246,33.2607699 C26.2826,33.2607699 26.8966,32.6373452 26.8966,31.8689616 L26.8966,27.3225233 C26.8966,26.5551534 26.2826,25.9327425 25.5246,25.9327425" id="Fill-28" fill="#19123F" mask="url(#mask-8)"></path>
                        </g>
                        <path d="M30.9533,42.0471041 L30.9533,72.5107753 C30.9533,73.6765288 30.4023,73.9806384 29.5023,73.9806384 L24.7023,73.9806384 C23.8023,73.9806384 23.2523,73.6765288 23.2523,72.5107753 L23.2523,55.3275699 L18.2523,64.1984466 C18.0023,64.6029123 17.5523,65.2618164 16.8023,65.2618164 L14.3013,65.2618164 C13.5513,65.2618164 13.1513,64.6029123 12.9013,64.1984466 L7.8513,55.3275699 L7.8513,72.5107753 C7.8513,73.6765288 7.3013,73.9806384 6.4003,73.9806384 L1.4513,73.9806384 C0.5513,73.9806384 0.0003,73.6765288 0.0003,72.5107753 L0.0003,42.0471041 C0.0003,41.135789 0.3013,40.5772411 1.4513,40.5772411 L6.4003,40.5772411 C8.1013,40.5772411 8.3013,41.6912959 8.7013,42.3005288 L15.5513,54.7700356 L22.4513,42.3005288 C22.8023,41.6912959 23.0523,40.5772411 24.7023,40.5772411 L29.5023,40.5772411 C30.6523,40.5772411 30.9533,41.135789 30.9533,42.0471041" id="Fill-31" fill="#19123F"></path>
                        <path d="M98.1672,73.9171808 L92.2672,73.9171808 C91.0662,73.9171808 90.4672,73.4610164 89.7672,72.3966329 L84.3662,64.2353452 C83.9162,63.6281397 83.8162,63.0706055 83.8162,61.6504137 L83.8162,57.5956192 C83.8162,56.6832904 84.1162,56.1247425 85.2662,56.1247425 L86.2662,56.1247425 C88.7172,56.1247425 91.0172,54.4024685 91.0172,52.019263 C91.0172,49.3836466 89.0172,47.7110438 86.4162,47.7110438 L79.7662,47.7110438 L79.7662,72.4473178 C79.7662,73.6130712 79.2162,73.9171808 78.3162,73.9171808 L73.3652,73.9171808 C72.4652,73.9171808 71.9652,73.6130712 71.9652,72.4473178 L71.9652,42.0860301 C71.9652,41.1726877 72.2152,40.6141397 73.3652,40.6141397 L85.9672,40.6141397 C91.4162,40.6141397 93.8162,41.7302219 95.9172,43.8600027 C97.7682,45.6836466 98.8162,48.5737014 98.8162,51.8165233 C98.8162,57.1394548 94.9672,60.8394548 91.8672,61.9038384 L98.9172,72.2942493 C99.3672,73.0058658 99.1172,73.9171808 98.1672,73.9171808" id="Fill-33" fill="#19123F"></path>
                        <path d="M133.2287,41.9837479 L121.9787,54.3508712 L132.7287,72.2943507 C133.1287,72.9542685 132.9287,73.9172822 131.9787,73.9172822 L125.8787,73.9172822 C124.6777,73.9172822 124.0287,73.3597479 123.3787,72.2943507 C123.3787,72.2943507 118.9277,64.691611 116.2287,60.1299671 L113.1267,63.4244877 L113.1267,72.4474192 C113.1267,73.6131726 112.5787,73.9172822 111.7277,73.9172822 L106.7777,73.9172822 C105.8277,73.9172822 105.3277,73.6131726 105.3277,72.4474192 L105.3277,42.0344329 C105.3277,40.8676658 105.8277,40.5655836 106.7777,40.5655836 L111.7277,40.5655836 C112.5787,40.5655836 113.1267,40.8676658 113.1267,42.0344329 L113.1267,53.3371726 L123.4787,41.7810082 C124.4787,40.6659397 124.8287,40.5655836 125.9787,40.5655836 L132.7287,40.5655836 C133.6787,40.5655836 133.6787,41.5275836 133.2287,41.9837479" id="Fill-35" fill="#19123F"></path>
                    </g>
                </g>
            </g>
        </g>
    </g>
</svg>